<svg width="674" height="346" viewBox="0 0 674 346" fill="none" xmlns="http://www.w3.org/2000/svg">
<path d="M341.305 33.3945C342.815 33.214 343.705 33.71 344.965 34.575C353.365 40.354 361.805 46.1525 370.215 51.9145L424.985 89.357L462.14 114.533C468.08 118.529 475.785 123.147 481.215 127.359C481.555 132.94 482.11 161.444 480.685 165.386C478.195 167.145 470.895 166.58 467.525 166.527C467.1 156.249 467.81 145.522 467.02 135.233C463.06 131.911 454.12 126.212 449.525 123.121L419.435 102.724C395.03 86.1145 368.37 66.624 343.755 51.0515C343.34 50.8855 343.075 50.719 342.625 50.7375C340.705 50.816 227.291 127.792 218.606 134.866C218.435 145.401 218.876 156.012 218.489 166.572C214.906 166.699 208.538 167.238 205.274 166.033C203.713 163.297 204.417 132.218 204.428 127.164C209.05 123.549 216.72 118.827 221.784 115.462C230.35 109.751 238.847 103.935 247.272 98.0185C277.764 76.834 310.357 53.6915 341.305 33.3945Z" fill="#F1F0F0"/>
<path d="M204.982 248.595C209.644 248.465 213.785 248.52 218.428 248.625C218.803 253.095 218.624 260.525 218.631 265.275L218.59 295.49L467.25 295.43C467.63 279.965 467.095 264.455 467.505 248.68C482.565 248.04 481.83 247.77 481.485 262.75L481.505 290.18C481.5 295.97 481.705 303.735 480.835 309.315C471.98 310.005 455.63 309.555 446.44 309.555L381.085 309.535L270.246 309.51C261.567 309.51 210.295 310.355 205.356 308.505C204.036 304.485 203.976 253.07 204.982 248.595Z" fill="#F1F0F0"/>
<path d="M341.725 64.885C346.545 66.2705 397.06 102.525 405.23 108.19L453.5 141.068C453.55 147.783 453.91 160.321 453.09 166.629C448.685 167 443.95 166.731 439.505 166.595C438.87 161.188 439 154.1 438.94 148.539C433.375 143.916 417.165 133.543 410.37 128.912C388.36 113.91 365.955 97.818 343.73 83.299L342.675 82.7025C340.505 82.75 328.06 91.722 325.062 93.755L288.066 119.254L262.341 137.054C257.731 140.248 250.607 144.879 246.614 148.488C246.423 154.556 246.567 160.366 246.235 166.526C241.677 166.798 237.107 166.792 232.55 166.506C232.163 158.425 232.406 148.886 232.443 140.693C247.637 129.171 268.367 115.934 284.339 104.68C296.547 96.0005 308.818 87.4085 321.149 78.9045C327.26 74.648 335.46 68.584 341.725 64.885Z" fill="#F1F0F0"/>
<path d="M232.943 248.58C237.61 248.535 241.311 248.475 245.986 248.905C246.713 255.655 246.245 265.685 246.272 272.855L439.38 272.995C439.315 265.065 439.135 256.925 439.545 249.02C444.435 248.59 448.575 248.715 453.45 249.03C453.56 253.575 453.525 258.295 453.555 262.855C453.62 267.27 454.535 283.57 452.36 286.635C448.235 287.27 434.44 287.015 429.77 287.015L384.055 286.98L279.983 287.025C273.737 287.03 237.11 287.49 232.902 286.235C231.56 282.325 231.369 252.08 232.943 248.58Z" fill="#F1F0F0"/>
<path d="M426.125 179.38C442.01 177.99 455.99 189.8 457.27 205.695C458.555 221.59 446.65 235.485 430.75 236.66C414.995 237.825 401.26 226.06 399.99 210.32C398.72 194.575 410.39 180.755 426.125 179.38Z" fill="#EBE6C6"/>
<path d="M425.05 187.625C431.745 186.79 436.915 189.22 439.57 195.595C444.1 206.455 443.955 222.98 432.085 228.74C411.685 231.785 409.28 195.415 425.05 187.625Z" fill="black" fill-opacity="0.88"/>
<path d="M482.09 219.735C477.095 208.53 479.765 195.39 488.735 187.025C497.71 178.66 511 176.91 521.83 182.675C532.655 188.44 538.63 200.445 536.7 212.555C536.45 214.115 536.075 215.645 535.575 217.14C531.82 228.38 521.555 236.155 509.72 236.73C497.885 237.305 486.915 230.555 482.09 219.735Z" fill="#EBE6C6"/>
<path d="M495.03 213.785C494.75 207.03 494.825 194.975 500.2 190.8C515.455 178.945 522.435 199.14 521.755 210.435C521.655 211.91 521.515 213.385 521.33 214.85L521.395 215.69C519.735 221.175 517.575 226.635 511.53 228.56C508.7 229.48 505.61 229.125 503.065 227.59C498.125 224.645 496.265 219.015 495.03 213.785Z" fill="black" fill-opacity="0.86"/>
<path d="M495.03 213.785C496.265 219.015 498.125 224.645 503.065 227.59C505.61 229.125 508.7 229.48 511.53 228.56C517.575 226.635 519.735 221.175 521.395 215.69L522.08 216.66C528.815 216.33 530.935 217.265 535.575 217.14C531.82 228.38 521.555 236.155 509.72 236.73C497.885 237.305 486.915 230.555 482.09 219.735C483.395 220.44 485.395 223.91 486.265 225.39C494.15 238.805 517.12 239.04 527.385 228.49C527.79 228.07 527.885 227.66 527.955 227.11L526.5 226.63C524.2 226.435 523.65 227.665 521.465 228.665C521.645 229.455 521.56 229.355 521.46 230.205L520.705 230.02C520.505 227.865 520.41 226.235 519.87 224.11L519.215 224.1C514.23 229.26 514.93 228.595 507.8 230.59C500.965 228.285 492.99 221.715 495.03 213.785Z" fill="#D7CFB0"/>
<path d="M521.465 228.665C519.955 223.39 526.35 222.92 528.35 225.245L528.12 226.115L526.5 226.63C524.2 226.435 523.65 227.665 521.465 228.665Z" fill="#E5DCBB"/>
<path d="M521.33 214.85C527.645 215.405 529.315 212.5 536.7 212.555C536.45 214.115 536.075 215.645 535.575 217.14C530.935 217.265 528.815 216.33 522.08 216.66L521.395 215.69L521.33 214.85Z" fill="#E5DCBB"/>
<path d="M565.46 187.41C563.005 186.93 561.17 187.02 559.89 185.225C559.935 183.69 559.765 181.955 560.525 180.73C564.025 180.04 573.53 180.32 577.7 180.345C582.13 189.325 588.47 203.27 593.285 211.66C598.17 201.315 602.84 190.77 607.76 180.49C612.01 180.455 621.485 180.145 625.22 180.765C626.135 181.875 626.61 185.355 625.41 186.265C624.42 187.015 622.035 187.36 620.715 187.625C620.07 200.33 621.21 213.32 620.605 226.065C620.505 228.17 625.675 229.885 626.925 232.2C626.88 234.245 627.125 233.26 625.815 235.155C623.48 235.555 604.87 235.82 603.4 235.24C602.055 233.815 602.465 233.795 602.11 231.405L601.54 229.575C600.345 228.825 596.82 228.49 594.815 227.965C594.53 228.65 594.165 229.255 593.81 229.91C592.35 230.715 590.165 230.4 588.395 230.335C583.625 221.39 579.505 212.22 574.645 203.17C574.89 207.055 574.655 212.5 574.6 216.495C574.795 219.96 574.635 224.55 574.615 228.1C576.43 228.735 578.68 229.34 580.55 229.905C580.515 231.685 580.335 233.64 580.21 235.43C575.17 235.49 565.68 235.815 561.01 235.285C559.68 234.33 560.16 234.72 559.335 233.08C559.72 229.695 562.71 229.81 564.82 227.815C566.665 226.065 565.385 202.395 565.75 197.615C565.705 194.215 565.61 190.81 565.46 187.41Z" fill="#EBE6C6"/>
<path d="M565.75 197.615C567.145 201.38 565.17 212.165 566.475 217.01C569.12 218.45 572.56 215.935 574.6 216.495C574.795 219.96 574.635 224.55 574.615 228.1C576.43 228.735 578.68 229.34 580.55 229.905C580.515 231.685 580.335 233.64 580.21 235.43C575.17 235.49 565.68 235.815 561.01 235.285C559.68 234.33 560.16 234.72 559.335 233.08C559.72 229.695 562.71 229.81 564.82 227.815C566.665 226.065 565.385 202.395 565.75 197.615Z" fill="#D7CFB0"/>
<path d="M608.44 199.22C608.455 208.715 608.645 218.81 608.38 228.26C606.15 228.835 604.92 229.15 602.795 229.995C602.61 230.35 602.215 231.06 602.11 231.405L601.54 229.575C600.345 228.825 596.82 228.49 594.815 227.965C599.42 218.41 603.96 208.83 608.44 199.22Z" fill="#16160D"/>
<path d="M329.89 180.48C339.3 180.235 351.02 179.85 360.24 180.98C369.205 182.08 374.495 190.415 371.77 199.02C369.905 204.91 367.1 206.965 361.97 210.055C366.425 215.5 370.325 221.94 374.725 227.47C375.575 228.535 379.02 229.435 379.315 230.285C379.795 231.68 379.62 233.815 379.015 235.195C375.845 235.795 367.81 235.57 364.225 235.565L360.78 230.25C357.17 224.245 352.72 216.51 348.14 211.355C347.955 215.685 346.655 226.74 350.14 229.32C351.595 229.57 351.88 229.605 353.25 230.105C354.145 231.77 353.705 233.55 353.505 235.485C349.5 235.435 331.92 236.165 330.105 234.62C329.94 232.585 329.96 232.55 330.31 230.52C331.675 229.15 332.865 229.235 334.98 228.71C335.54 215.015 335.185 201.34 335.375 187.655C333.55 187.155 331.54 186.825 330.17 185.605C329.275 183.905 329.69 182.455 329.89 180.48Z" fill="#EBE6C6"/>
<path d="M348.495 187.03C359.15 187.665 362.12 195.57 356.005 203.945C354.015 205.255 350.92 206.665 348.565 205.755C347.635 203.59 347.655 189.36 348.495 187.03Z" fill="#16160D"/>
<path d="M177.098 180.515L193.402 180.45C199.7 189.31 211.67 203.255 218.916 212.33C218.885 207.12 220.183 190.445 217.03 187.3C215.509 186.755 215.146 186.65 213.697 185.835C212.784 184.28 213.262 182.4 213.467 180.52C218.178 180.465 229.108 180.005 233.267 181.045C234.51 182.595 234.15 181.74 234.396 183.7C233.157 186.295 228.317 188.06 228.15 190.51C227.95 193.45 228.168 197.205 228.185 200.22L228.161 223.9C228.153 227.475 228.214 231.215 228.147 234.785C228.115 236.515 227.509 236.78 226.452 237.68C225.819 237.67 225.102 237.67 224.481 237.58C220.115 236.94 197.695 206.46 193.601 200.93C193.657 210.125 193.477 219.27 193.594 228.485C196.152 228.955 198.053 228.88 199.42 230.765C199.407 232.425 199.595 233.8 198.821 235.225C195.173 235.825 183.683 235.575 179.414 235.57C179.17 232.615 178.526 231.58 180.691 229.515C182.245 229.185 182.638 229.205 184.027 228.41C185.588 225.805 184.888 196.9 184.944 191.425C182.224 187.385 181.237 188.38 177.631 185.705C176.642 184.22 177.002 182.38 177.098 180.515Z" fill="#EBE6C6"/>
<path d="M61.896 228.745L61.899 200.905C61.903 197.55 61.998 193.985 62.024 190.66C62.042 188.31 57.528 186.06 56.5485 183.14C56.9505 181.29 56.518 182.03 57.759 180.755C60.458 180.34 78.443 179.93 79.727 181.135C80.503 181.87 80.697 182.455 80.877 183.47C79.689 187.09 74.9395 186.795 74.6275 188.945C74.22 191.75 74.545 196.465 74.667 199.38C77.444 196.615 84.616 190.1 86.4715 187.46C86.286 185.115 83.439 186.025 85.2625 182.05C88.8075 179.19 99.127 180.65 104.3 180.635C104.383 182.36 104.71 184.6 103.991 186.045C103.138 186.39 99.273 187.915 98.7875 188.38C93.1495 193.775 87.2015 199.81 81.65 205.25C88.426 211.865 94.6895 218.955 101.238 225.79C103.586 228.24 108.358 228.685 107.907 232.27C107.737 233.625 108.185 234.245 107.269 235.305C103.035 235.785 96.5775 235.525 92.159 235.48C86.531 228.385 80.4595 221.55 74.507 214.72C74.5275 219.185 74.6395 223.97 74.5365 228.41C76.2975 228.69 78.471 228.78 79.681 229.93C80.4395 231.605 80.1035 233.01 79.9525 234.885C78.729 235.935 58.4415 235.875 57.2095 234.74C56.9905 232.925 56.816 232.18 57.077 230.335C58.4905 229.065 59.7985 229.165 61.896 228.745Z" fill="url(#paint0_linear_14_2)"/>
<path d="M61.896 228.745C60.078 231.27 57.571 229.63 57.489 231.75C62.4175 234.16 62.3545 229.805 65.1935 228.62C69.6565 228.38 72.225 231.58 75.458 234.26C77.59 234.25 78.031 234.125 79.9525 234.885C78.729 235.935 58.4415 235.875 57.2095 234.74C56.9905 232.925 56.816 232.18 57.077 230.335C58.4905 229.065 59.7985 229.165 61.896 228.745Z" fill="#D7CFB0"/>
<path d="M283.055 179.205C290.176 178.97 296.512 180.555 302.784 183.84C302.376 189.165 303.832 194.295 301.506 197.755C299.966 198.805 298.313 198.52 296.392 198.49C294.219 191.965 293.437 187.875 285.678 187.31C274.32 186.355 269.152 197.44 269.238 207.33C269.369 222.43 275.501 229.06 290.291 229.01C290.429 225.655 290.86 220.36 290.231 217.27C287.625 215.625 284.032 215.09 283.047 211.945C283.835 207.64 291.332 209 295.125 208.995L309.538 209.035C309.831 211.385 310.499 213.26 308.715 214.97C307.056 215.085 306.379 214.995 304.919 215.82C302.499 218.885 303.427 228.16 303.479 232.665C299.413 234.515 295.086 235.725 290.651 236.26C281.661 237.425 272.048 236.52 264.563 230.645C252.142 220.885 251.741 200.615 261.543 188.945C267.25 182.15 274.642 179.915 283.055 179.205Z" fill="#EBE6C6"/>
<path d="M136.095 208.125C136.031 203.445 136.424 192.495 135.837 189.01C133.741 187.44 129.918 184.98 129.43 182.5C131.038 180.27 133.39 180.55 136.021 180.535C141.995 180.5 147.972 180.53 153.947 180.55C154.176 182.435 154.616 184.05 153.796 185.7C152.435 186.55 152.226 186.495 150.686 186.815C147.787 189.805 149.155 205.91 149.13 210.78C148.56 210.8 145.722 210.95 145.315 210.905C142.864 211.71 139.923 212.915 137.554 212.175C136.22 210.93 136.661 211.155 136.478 208.695L136.095 208.125Z" fill="#EBE6C6"/>
<path d="M136.095 208.125L136.478 208.695C136.661 211.155 136.22 210.93 137.554 212.175C139.923 212.915 142.864 211.71 145.315 210.905C145.722 210.95 148.56 210.8 149.131 210.78C149.036 215.335 148.513 222.98 149.68 227.355C150.112 228.97 151.465 229.265 153.012 229.86L153.758 230.14C154.828 231.645 154.441 233.6 154.344 235.535L130.524 235.475C130.419 232.615 129.888 231.485 131.953 229.5C133.347 229.295 134.017 229.325 135.166 228.495C136.682 225.34 136.069 212.8 136.095 208.125Z" fill="#D7CFB0"/>
<defs>
<linearGradient id="paint0_linear_14_2" x1="85.4815" y1="237.62" x2="75.2465" y2="178.2" gradientUnits="userSpaceOnUse">
<stop stop-color="#D4CDAF"/>
<stop offset="1" stop-color="#F9F3D3"/>
</linearGradient>
</defs>
</svg>
