<svg width="800" height="461" viewBox="0 0 800 461" fill="none" xmlns="http://www.w3.org/2000/svg">
<path d="M395.305 93.3945C396.815 93.214 397.705 93.71 398.965 94.575C407.365 100.354 415.805 106.152 424.215 111.914L478.985 149.357L516.14 174.533C522.08 178.529 529.785 183.147 535.215 187.359C535.555 192.94 536.11 221.444 534.685 225.386C532.195 227.145 524.895 226.58 521.525 226.527C521.1 216.249 521.81 205.522 521.02 195.233C517.06 191.911 508.12 186.212 503.525 183.121L473.435 162.724C449.03 146.114 422.37 126.624 397.755 111.052C397.34 110.886 397.075 110.719 396.625 110.737C394.705 110.816 281.291 187.792 272.606 194.866C272.435 205.401 272.876 216.012 272.489 226.572C268.906 226.699 262.538 227.238 259.274 226.033C257.713 223.297 258.417 192.218 258.428 187.164C263.05 183.549 270.72 178.827 275.784 175.462C284.35 169.751 292.847 163.935 301.272 158.018C331.764 136.834 364.357 113.691 395.305 93.3945Z" fill="#F1F0F0"/>
<path d="M258.982 308.595C263.644 308.465 267.785 308.52 272.428 308.625C272.803 313.095 272.624 320.525 272.631 325.275L272.59 355.49L521.25 355.43C521.63 339.965 521.095 324.455 521.505 308.68C536.565 308.04 535.83 307.77 535.485 322.75L535.505 350.18C535.5 355.97 535.705 363.735 534.835 369.315C525.98 370.005 509.63 369.555 500.44 369.555L435.085 369.535L324.246 369.51C315.567 369.51 264.295 370.355 259.356 368.505C258.036 364.485 257.976 313.07 258.982 308.595Z" fill="#F1F0F0"/>
<path d="M395.725 124.885C400.545 126.271 451.06 162.525 459.23 168.19L507.5 201.068C507.55 207.783 507.91 220.321 507.09 226.629C502.685 227 497.95 226.731 493.505 226.595C492.87 221.188 493 214.1 492.94 208.539C487.375 203.916 471.165 193.543 464.37 188.912C442.36 173.91 419.955 157.818 397.73 143.299L396.675 142.703C394.505 142.75 382.06 151.722 379.062 153.755L342.066 179.254L316.341 197.054C311.731 200.248 304.607 204.879 300.614 208.488C300.423 214.556 300.567 220.366 300.235 226.526C295.677 226.798 291.107 226.792 286.55 226.506C286.163 218.425 286.406 208.886 286.443 200.693C301.637 189.171 322.367 175.934 338.339 164.68C350.547 156 362.818 147.409 375.149 138.905C381.26 134.648 389.46 128.584 395.725 124.885Z" fill="#F1F0F0"/>
<path d="M286.943 308.58C291.61 308.535 295.311 308.475 299.986 308.905C300.713 315.655 300.245 325.685 300.272 332.855L493.38 332.995C493.315 325.065 493.135 316.925 493.545 309.02C498.435 308.59 502.575 308.715 507.45 309.03C507.56 313.575 507.525 318.295 507.555 322.855C507.62 327.27 508.535 343.57 506.36 346.635C502.235 347.27 488.44 347.015 483.77 347.015L438.055 346.98L333.983 347.025C327.737 347.03 291.11 347.49 286.902 346.235C285.56 342.325 285.369 312.08 286.943 308.58Z" fill="#F1F0F0"/>
<path d="M480.125 239.38C496.01 237.99 509.99 249.8 511.27 265.695C512.555 281.59 500.65 295.485 484.75 296.66C468.995 297.825 455.26 286.06 453.99 270.32C452.72 254.575 464.39 240.755 480.125 239.38Z" fill="#EBE6C6"/>
<path d="M479.05 247.625C485.745 246.79 490.915 249.22 493.57 255.595C498.1 266.455 497.955 282.98 486.085 288.74C465.685 291.785 463.28 255.415 479.05 247.625Z" fill="black"/>
<path d="M536.09 279.735C531.095 268.53 533.765 255.39 542.735 247.025C551.71 238.66 565 236.91 575.83 242.675C586.655 248.44 592.63 260.445 590.7 272.555C590.45 274.115 590.075 275.645 589.575 277.14C585.82 288.38 575.555 296.155 563.72 296.73C551.885 297.305 540.915 290.555 536.09 279.735Z" fill="#EBE6C6"/>
<path d="M549.03 273.785C548.75 267.03 548.825 254.975 554.2 250.8C569.455 238.945 576.435 259.14 575.755 270.435C575.655 271.91 575.515 273.385 575.33 274.85L575.395 275.69C573.735 281.175 571.575 286.635 565.53 288.56C562.7 289.48 559.61 289.125 557.065 287.59C552.125 284.645 550.265 279.015 549.03 273.785Z" fill="black"/>
<path d="M549.03 273.785C550.265 279.015 552.125 284.645 557.065 287.59C559.61 289.125 562.7 289.48 565.53 288.56C571.575 286.635 573.735 281.175 575.395 275.69L576.08 276.66C582.815 276.33 584.935 277.265 589.575 277.14C585.82 288.38 575.555 296.155 563.72 296.73C551.885 297.305 540.915 290.555 536.09 279.735C537.395 280.44 539.395 283.91 540.265 285.39C548.15 298.805 571.12 299.04 581.385 288.49C581.79 288.07 581.885 287.66 581.955 287.11L580.5 286.63C578.2 286.435 577.65 287.665 575.465 288.665C575.645 289.455 575.56 289.355 575.46 290.205L574.705 290.02C574.505 287.865 574.41 286.235 573.87 284.11L573.215 284.1C568.23 289.26 568.93 288.595 561.8 290.59C554.965 288.285 546.99 281.715 549.03 273.785Z" fill="#D7CFB0"/>
<path d="M575.465 288.665C573.955 283.39 580.35 282.92 582.35 285.245L582.12 286.115L580.5 286.63C578.2 286.435 577.65 287.665 575.465 288.665Z" fill="#E5DCBB"/>
<path d="M575.33 274.85C581.645 275.405 583.315 272.5 590.7 272.555C590.45 274.115 590.075 275.645 589.575 277.14C584.935 277.265 582.815 276.33 576.08 276.66L575.395 275.69L575.33 274.85Z" fill="#E5DCBB"/>
<path d="M619.46 247.41C617.005 246.93 615.17 247.02 613.89 245.225C613.935 243.69 613.765 241.955 614.525 240.73C618.025 240.04 627.53 240.32 631.7 240.345C636.13 249.325 642.47 263.27 647.285 271.66C652.17 261.315 656.84 250.77 661.76 240.49C666.01 240.455 675.485 240.145 679.22 240.765C680.135 241.875 680.61 245.355 679.41 246.265C678.42 247.015 676.035 247.36 674.715 247.625C674.07 260.33 675.21 273.32 674.605 286.065C674.505 288.17 679.675 289.885 680.925 292.2C680.88 294.245 681.125 293.26 679.815 295.155C677.48 295.555 658.87 295.82 657.4 295.24C656.055 293.815 656.465 293.795 656.11 291.405L655.54 289.575C654.345 288.825 650.82 288.49 648.815 287.965C648.53 288.65 648.165 289.255 647.81 289.91C646.35 290.715 644.165 290.4 642.395 290.335C637.625 281.39 633.505 272.22 628.645 263.17C628.89 267.055 628.655 272.5 628.6 276.495C628.795 279.96 628.635 284.55 628.615 288.1C630.43 288.735 632.68 289.34 634.55 289.905C634.515 291.685 634.335 293.64 634.21 295.43C629.17 295.49 619.68 295.815 615.01 295.285C613.68 294.33 614.16 294.72 613.335 293.08C613.72 289.695 616.71 289.81 618.82 287.815C620.665 286.065 619.385 262.395 619.75 257.615C619.705 254.215 619.61 250.81 619.46 247.41Z" fill="#EBE6C6"/>
<path d="M619.75 257.615C621.145 261.38 619.17 272.165 620.475 277.01C623.12 278.45 626.56 275.935 628.6 276.495C628.795 279.96 628.635 284.55 628.615 288.1C630.43 288.735 632.68 289.34 634.55 289.905C634.515 291.685 634.335 293.64 634.21 295.43C629.17 295.49 619.68 295.815 615.01 295.285C613.68 294.33 614.16 294.72 613.335 293.08C613.72 289.695 616.71 289.81 618.82 287.815C620.665 286.065 619.385 262.395 619.75 257.615Z" fill="#D7CFB0"/>
<path d="M662.44 259.22C662.455 268.715 662.645 278.81 662.38 288.26C660.15 288.835 658.92 289.15 656.795 289.995C656.61 290.35 656.215 291.06 656.11 291.405L655.54 289.575C654.345 288.825 650.82 288.49 648.815 287.965C653.42 278.41 657.96 268.83 662.44 259.22Z" fill="#16160D"/>
<path d="M383.89 240.48C393.3 240.235 405.02 239.85 414.24 240.98C423.205 242.08 428.495 250.415 425.77 259.02C423.905 264.91 421.1 266.965 415.97 270.055C420.425 275.5 424.325 281.94 428.725 287.47C429.575 288.535 433.02 289.435 433.315 290.285C433.795 291.68 433.62 293.815 433.015 295.195C429.845 295.795 421.81 295.57 418.225 295.565L414.78 290.25C411.17 284.245 406.72 276.51 402.14 271.355C401.955 275.685 400.655 286.74 404.14 289.32C405.595 289.57 405.88 289.605 407.25 290.105C408.145 291.77 407.705 293.55 407.505 295.485C403.5 295.435 385.92 296.165 384.105 294.62C383.94 292.585 383.96 292.55 384.31 290.52C385.675 289.15 386.865 289.235 388.98 288.71C389.54 275.015 389.185 261.34 389.375 247.655C387.55 247.155 385.54 246.825 384.17 245.605C383.275 243.905 383.69 242.455 383.89 240.48Z" fill="#EBE6C6"/>
<path d="M402.495 247.03C413.15 247.665 416.12 255.57 410.005 263.945C408.015 265.255 404.92 266.665 402.565 265.755C401.635 263.59 401.655 249.36 402.495 247.03Z" fill="#16160D"/>
<path d="M231.098 240.515L247.402 240.45C253.7 249.31 265.67 263.255 272.916 272.33C272.885 267.12 274.183 250.445 271.03 247.3C269.509 246.755 269.146 246.65 267.697 245.835C266.784 244.28 267.262 242.4 267.467 240.52C272.178 240.465 283.108 240.005 287.267 241.045C288.51 242.595 288.15 241.74 288.396 243.7C287.157 246.295 282.317 248.06 282.15 250.51C281.95 253.45 282.168 257.205 282.185 260.22L282.161 283.9C282.153 287.475 282.214 291.215 282.147 294.785C282.115 296.515 281.509 296.78 280.452 297.68C279.819 297.67 279.102 297.67 278.481 297.58C274.115 296.94 251.695 266.46 247.601 260.93C247.657 270.125 247.477 279.27 247.594 288.485C250.152 288.955 252.053 288.88 253.42 290.765C253.407 292.425 253.595 293.8 252.821 295.225C249.173 295.825 237.683 295.575 233.414 295.57C233.17 292.615 232.526 291.58 234.691 289.515C236.245 289.185 236.638 289.205 238.027 288.41C239.588 285.805 238.888 256.9 238.944 251.425C236.224 247.385 235.237 248.38 231.631 245.705C230.642 244.22 231.002 242.38 231.098 240.515Z" fill="#EBE6C6"/>
<path d="M115.896 288.745L115.899 260.905C115.903 257.55 115.998 253.985 116.024 250.66C116.042 248.31 111.528 246.06 110.548 243.14C110.95 241.29 110.518 242.03 111.759 240.755C114.458 240.34 132.443 239.93 133.727 241.135C134.503 241.87 134.697 242.455 134.877 243.47C133.689 247.09 128.94 246.795 128.628 248.945C128.22 251.75 128.545 256.465 128.667 259.38C131.444 256.615 138.616 250.1 140.471 247.46C140.286 245.115 137.439 246.025 139.263 242.05C142.808 239.19 153.127 240.65 158.3 240.635C158.383 242.36 158.71 244.6 157.991 246.045C157.138 246.39 153.273 247.915 152.788 248.38C147.15 253.775 141.201 259.81 135.65 265.25C142.426 271.865 148.689 278.955 155.238 285.79C157.586 288.24 162.358 288.685 161.907 292.27C161.737 293.625 162.185 294.245 161.269 295.305C157.035 295.785 150.577 295.525 146.159 295.48C140.531 288.385 134.46 281.55 128.507 274.72C128.528 279.185 128.639 283.97 128.536 288.41C130.297 288.69 132.471 288.78 133.681 289.93C134.439 291.605 134.103 293.01 133.952 294.885C132.729 295.935 112.442 295.875 111.21 294.74C110.991 292.925 110.816 292.18 111.077 290.335C112.49 289.065 113.798 289.165 115.896 288.745Z" fill="url(#paint0_linear_7_47)"/>
<path d="M115.896 288.745C114.078 291.27 111.571 289.63 111.489 291.75C116.417 294.16 116.354 289.805 119.193 288.62C123.656 288.38 126.225 291.58 129.458 294.26C131.59 294.25 132.031 294.125 133.952 294.885C132.729 295.935 112.441 295.875 111.209 294.74C110.99 292.925 110.816 292.18 111.077 290.335C112.49 289.065 113.798 289.165 115.896 288.745Z" fill="#D7CFB0"/>
<path d="M337.055 239.205C344.176 238.97 350.512 240.555 356.784 243.84C356.376 249.165 357.832 254.295 355.506 257.755C353.966 258.805 352.313 258.52 350.392 258.49C348.219 251.965 347.437 247.875 339.678 247.31C328.32 246.355 323.152 257.44 323.238 267.33C323.369 282.43 329.501 289.06 344.291 289.01C344.429 285.655 344.86 280.36 344.231 277.27C341.625 275.625 338.032 275.09 337.047 271.945C337.835 267.64 345.332 269 349.125 268.995L363.538 269.035C363.831 271.385 364.499 273.26 362.715 274.97C361.056 275.085 360.379 274.995 358.919 275.82C356.499 278.885 357.427 288.16 357.479 292.665C353.413 294.515 349.086 295.725 344.651 296.26C335.661 297.425 326.048 296.52 318.563 290.645C306.142 280.885 305.741 260.615 315.543 248.945C321.25 242.15 328.642 239.915 337.055 239.205Z" fill="#EBE6C6"/>
<path d="M190.095 268.125C190.031 263.445 190.424 252.495 189.837 249.01C187.741 247.44 183.918 244.98 183.43 242.5C185.038 240.27 187.39 240.55 190.021 240.535C195.995 240.5 201.972 240.53 207.947 240.55C208.176 242.435 208.616 244.05 207.796 245.7C206.435 246.55 206.226 246.495 204.686 246.815C201.787 249.805 203.155 265.91 203.13 270.78C202.56 270.8 199.722 270.95 199.315 270.905C196.864 271.71 193.923 272.915 191.554 272.175C190.22 270.93 190.661 271.155 190.478 268.695L190.095 268.125Z" fill="#EBE6C6"/>
<path d="M190.095 268.125L190.478 268.695C190.661 271.155 190.22 270.93 191.554 272.175C193.923 272.915 196.864 271.71 199.315 270.905C199.722 270.95 202.56 270.8 203.131 270.78C203.036 275.335 202.513 282.98 203.68 287.355C204.112 288.97 205.465 289.265 207.012 289.86L207.758 290.14C208.828 291.645 208.441 293.6 208.344 295.535L184.524 295.475C184.419 292.615 183.888 291.485 185.953 289.5C187.347 289.295 188.017 289.325 189.166 288.495C190.682 285.34 190.069 272.8 190.095 268.125Z" fill="#D7CFB0"/>
<defs>
<linearGradient id="paint0_linear_7_47" x1="139.482" y1="297.62" x2="129.247" y2="238.2" gradientUnits="userSpaceOnUse">
<stop stop-color="#D4CDAF"/>
<stop offset="1" stop-color="#F9F3D3"/>
</linearGradient>
</defs>
</svg>
