<?xml version="1.0"?>
<svg width="2048" height="2048" xmlns="http://www.w3.org/2000/svg" xmlns:svg="http://www.w3.org/2000/svg" display="block" preserveAspectRatio="none" version="1.1">
 <defs>
  <linearGradient id="Gradient1" x1="0.56" x2="0.36" y1="1.04" y2="-0.04">
   <stop class="stop0" offset="0" stop-color="rgb(212,205,175)"/>
   <stop class="stop1" offset="1" stop-color="rgb(249,243,211)"/>
  </linearGradient>
 </defs>
 <g class="layer">
  <title>Layer 1</title>
  <path d="m245,590l1548,0l0,818l-1548,0l0,-818z" fill="rgb(0,0,0)" id="svg_1"/>
  <path d="m1028.61,718.79c3.02,-0.36 4.8,0.63 7.32,2.36c16.8,11.56 33.68,23.15 50.5,34.68l109.54,74.88l74.31,50.36c11.88,7.99 27.29,17.22 38.15,25.65c0.68,11.16 1.79,68.17 -1.06,76.05c-4.98,3.52 -19.58,2.39 -26.32,2.28c-0.85,-20.55 0.57,-42.01 -1.01,-62.58c-7.92,-6.65 -25.8,-18.05 -34.99,-24.23l-60.18,-40.79c-48.81,-33.22 -102.13,-72.2 -151.36,-103.35c-0.83,-0.33 -1.36,-0.66 -2.26,-0.62c-3.84,0.15 -230.67,154.1 -248.04,168.25c-0.34,21.07 0.54,42.29 -0.23,63.41c-7.17,0.26 -19.9,1.34 -26.43,-1.07c-3.12,-5.47 -1.72,-67.63 -1.69,-77.74c9.24,-7.23 24.58,-16.68 34.71,-23.41c17.13,-11.42 34.12,-23.05 50.97,-34.88c60.99,-42.37 126.17,-88.66 188.07,-129.25z" fill="rgb(241,240,240)" id="svg_2" transform="translate(0,0)"/>
  <path d="m755.96,1149.19c9.33,-0.26 17.61,-0.15 26.9,0.06c0.75,8.94 0.39,23.8 0.4,33.3l-0.08,60.43l497.32,-0.12c0.76,-30.93 -0.31,-61.95 0.51,-93.5c30.12,-1.28 28.65,-1.82 27.96,28.14l0.04,54.86c-0.01,11.58 0.4,27.11 -1.34,38.27c-17.71,1.38 -50.41,0.48 -68.79,0.48l-130.71,-0.04l-221.68,-0.05c-17.36,0 -119.9,1.69 -129.78,-2.01c-2.64,-8.04 -2.76,-110.87 -0.75,-119.82z" fill="rgb(241,240,240)" id="svg_3" transform="translate(0,0)"/>
  <path d="m1029.45,781.77c9.64,2.77 110.67,75.28 127.01,86.61l96.54,65.75c0.1,13.44 0.82,38.51 -0.82,51.13c-8.81,0.74 -18.28,0.2 -27.17,-0.07c-1.27,-10.81 -1.01,-24.99 -1.13,-36.11c-11.13,-9.25 -43.55,-29.99 -57.14,-39.26c-44.02,-30 -88.83,-62.18 -133.28,-91.22l-2.11,-1.2c-4.34,0.1 -29.23,18.04 -35.22,22.11l-74,51l-51.45,35.6c-9.22,6.39 -23.47,15.65 -31.45,22.87c-0.38,12.13 -0.1,23.75 -0.76,36.07c-9.11,0.55 -18.26,0.53 -27.37,-0.04c-0.77,-16.16 -0.29,-35.24 -0.21,-51.63c30.38,-23.04 71.84,-49.51 103.79,-72.02c24.42,-17.36 48.96,-34.54 73.62,-51.55c12.22,-8.51 28.62,-20.64 41.15,-28.04z" fill="rgb(241,240,240)" id="svg_4" transform="translate(0,0)"/>
  <path d="m811.88,1149.16c9.34,-0.09 16.74,-0.21 26.09,0.65c1.45,13.5 0.52,33.56 0.57,47.9l386.22,0.28c-0.13,-15.86 -0.49,-32.14 0.33,-47.95c9.78,-0.86 18.06,-0.61 27.81,0.02c0.22,9.09 0.15,18.53 0.21,27.65c0.13,8.83 1.96,41.43 -2.39,47.56c-8.25,1.27 -35.84,0.76 -45.18,0.76l-91.43,-0.07l-208.14,0.09c-12.5,0.01 -85.75,0.93 -94.17,-1.58c-2.68,-7.82 -3.06,-68.31 0.08,-75.31z" fill="rgb(241,240,240)" id="svg_5" transform="translate(0,0)"/>
  <path d="m1198.25,1010.76c31.77,-2.78 59.73,20.84 62.29,52.63c2.57,31.79 -21.24,59.58 -53.04,61.93c-31.51,2.33 -58.98,-21.2 -61.52,-52.68c-2.54,-31.49 20.8,-59.13 52.27,-61.88z" fill="rgb(235,230,198)" id="svg_6" transform="translate(0,0)"/>
  <path d="m1196.1,1027.25c13.39,-1.67 23.73,3.19 29.04,15.94c9.06,21.72 8.77,54.77 -14.97,66.29c-40.8,6.09 -45.61,-66.65 -14.07,-82.23z" fill="rgb(0,0,0)" id="svg_7" transform="translate(0,0)"/>
  <path d="m1310.18,1091.47c-9.99,-22.41 -4.65,-48.69 13.29,-65.42c17.95,-16.73 44.53,-20.23 66.19,-8.7c21.65,11.53 33.6,35.54 29.74,59.76c-0.5,3.12 -1.25,6.18 -2.25,9.17c-7.51,22.48 -28.04,38.03 -51.71,39.18c-23.67,1.15 -45.61,-12.35 -55.26,-33.99z" fill="rgb(235,230,198)" id="svg_8" transform="translate(0,0)"/>
  <path d="m1336.06,1079.57c-0.56,-13.51 -0.41,-37.62 10.34,-45.97c30.51,-23.71 44.47,16.68 43.11,39.27c-0.2,2.95 -0.48,5.9 -0.85,8.83l0.13,1.68c-3.32,10.97 -7.64,21.89 -19.73,25.74c-5.66,1.84 -11.84,1.13 -16.93,-1.94c-9.88,-5.89 -13.6,-17.15 -16.07,-27.61z" fill="rgb(0,0,0)" id="svg_9" transform="translate(0,0)"/>
  <path d="m1336.06,1079.57c2.47,10.46 6.19,21.72 16.07,27.61c5.09,3.07 11.27,3.78 16.93,1.94c12.09,-3.85 16.41,-14.77 19.73,-25.74l1.37,1.94c13.47,-0.66 17.71,1.21 26.99,0.96c-7.51,22.48 -28.04,38.03 -51.71,39.18c-23.67,1.15 -45.61,-12.35 -55.26,-33.99c2.61,1.41 6.61,8.35 8.35,11.31c15.77,26.83 61.71,27.3 82.24,6.2c0.81,-0.84 1,-1.66 1.14,-2.76l-2.91,-0.96c-4.6,-0.39 -5.7,2.07 -10.07,4.07c0.36,1.58 0.19,1.38 -0.01,3.08l-1.51,-0.37c-0.4,-4.31 -0.59,-7.57 -1.67,-11.82l-1.31,-0.02c-9.97,10.32 -8.57,8.99 -22.83,12.98c-13.67,-4.61 -29.62,-17.75 -25.54,-33.61z" fill="rgb(215,207,176)" id="svg_10" transform="translate(0,0)"/>
  <path d="m1388.93,1109.33c-3.02,-10.55 9.77,-11.49 13.77,-6.84l-0.46,1.74l-3.24,1.03c-4.6,-0.39 -5.7,2.07 -10.07,4.07z" fill="rgb(229,220,187)" id="svg_11" transform="translate(0,0)"/>
  <path d="m1388.66,1081.7c12.63,1.11 15.97,-4.7 30.74,-4.59c-0.5,3.12 -1.25,6.18 -2.25,9.17c-9.28,0.25 -13.52,-1.62 -26.99,-0.96l-1.37,-1.94l-0.13,-1.68z" fill="rgb(229,220,187)" id="svg_12" transform="translate(0,0)"/>
  <path d="m1476.92,1026.82c-4.91,-0.96 -8.58,-0.78 -11.14,-4.37c0.09,-3.07 -0.25,-6.54 1.27,-8.99c7,-1.38 26.01,-0.82 34.35,-0.77c8.86,17.96 21.54,45.85 31.17,62.63c9.77,-20.69 19.11,-41.78 28.95,-62.34c8.5,-0.07 27.45,-0.69 34.92,0.55c1.83,2.22 2.78,9.18 0.38,11c-1.98,1.5 -6.75,2.19 -9.39,2.72c-1.29,25.41 0.99,51.39 -0.22,76.88c-0.2,4.21 10.14,7.64 12.64,12.27c-0.09,4.09 0.4,2.12 -2.22,5.91c-4.67,0.8 -41.89,1.33 -44.83,0.17c-2.69,-2.85 -1.87,-2.89 -2.58,-7.67l-1.14,-3.66c-2.39,-1.5 -9.44,-2.17 -13.45,-3.22c-0.57,1.37 -1.3,2.58 -2.01,3.89c-2.92,1.61 -7.29,0.98 -10.83,0.85c-9.54,-17.89 -17.78,-36.23 -27.5,-54.33c0.49,7.77 0.02,18.66 -0.09,26.65c0.39,6.93 0.07,16.11 0.03,23.21c3.63,1.27 8.13,2.48 11.87,3.61c-0.07,3.56 -0.43,7.47 -0.68,11.05c-10.08,0.12 -29.06,0.77 -38.4,-0.29c-2.66,-1.91 -1.7,-1.13 -3.35,-4.41c0.77,-6.77 6.75,-6.54 10.97,-10.53c3.69,-3.5 1.13,-50.84 1.86,-60.4c-0.09,-6.8 -0.28,-13.61 -0.58,-20.41z" fill="rgb(235,230,198)" id="svg_13" transform="translate(0,0)"/>
  <path d="m1477.5,1047.23c2.79,7.53 -1.16,29.1 1.45,38.79c5.29,2.88 12.17,-2.15 16.25,-1.03c0.39,6.93 0.07,16.11 0.03,23.21c3.63,1.27 8.13,2.48 11.87,3.61c-0.07,3.56 -0.43,7.47 -0.68,11.05c-10.08,0.12 -29.06,0.77 -38.4,-0.29c-2.66,-1.91 -1.7,-1.13 -3.35,-4.41c0.77,-6.77 6.75,-6.54 10.97,-10.53c3.69,-3.5 1.13,-50.84 1.86,-60.4z" fill="rgb(215,207,176)" id="svg_14" transform="translate(0,0)"/>
  <path d="m1562.88,1050.44c0.03,18.99 0.41,39.18 -0.12,58.08c-4.46,1.15 -6.92,1.78 -11.17,3.47c-0.37,0.71 -1.16,2.13 -1.37,2.82l-1.14,-3.66c-2.39,-1.5 -9.44,-2.17 -13.45,-3.22c9.21,-19.11 18.29,-38.27 27.25,-57.49z" fill="rgb(22,22,13)" id="svg_15" transform="translate(0,0)"/>
  <path d="m1005.78,1012.96c18.82,-0.49 42.26,-1.26 60.7,1c17.93,2.2 28.51,18.87 23.06,36.08c-3.73,11.78 -9.34,15.89 -19.6,22.07c8.91,10.89 16.71,23.77 25.51,34.83c1.7,2.13 8.59,3.93 9.18,5.63c0.96,2.79 0.61,7.06 -0.6,9.82c-6.34,1.2 -22.41,0.75 -29.58,0.74l-6.89,-10.63c-7.22,-12.01 -16.12,-27.48 -25.28,-37.79c-0.37,8.66 -2.97,30.77 4,35.93c2.91,0.5 3.48,0.57 6.22,1.57c1.79,3.33 0.91,6.89 0.51,10.76c-8.01,-0.1 -43.17,1.36 -46.8,-1.73c-0.33,-4.07 -0.29,-4.14 0.41,-8.2c2.73,-2.74 5.11,-2.57 9.34,-3.62c1.12,-27.39 0.41,-54.74 0.79,-82.11c-3.65,-1 -7.67,-1.66 -10.41,-4.1c-1.79,-3.4 -0.96,-6.3 -0.56,-10.25z" fill="rgb(235,230,198)" id="svg_16" transform="translate(0,0)"/>
  <path d="m1042.99,1026.06c21.31,1.27 27.25,17.08 15.02,33.83c-3.98,2.62 -10.17,5.44 -14.88,3.62c-1.86,-4.33 -1.82,-32.79 -0.14,-37.45z" fill="rgb(22,22,13)" id="svg_17" transform="translate(0,0)"/>
  <path d="m700.2,1013.03l32.6,-0.13c12.6,17.72 36.54,45.61 51.03,63.76c-0.06,-10.42 2.54,-43.77 -3.77,-50.06c-3.04,-1.09 -3.77,-1.3 -6.67,-2.93c-1.82,-3.11 -0.87,-6.87 -0.46,-10.63c9.43,-0.11 31.29,-1.03 39.6,1.05c2.49,3.1 1.77,1.39 2.26,5.31c-2.48,5.19 -12.16,8.72 -12.49,13.62c-0.4,5.88 0.04,13.39 0.07,19.42l-0.05,47.36c-0.01,7.15 0.11,14.63 -0.03,21.77c-0.06,3.46 -1.27,3.99 -3.39,5.79c-1.26,-0.02 -2.7,-0.02 -3.94,-0.2c-8.73,-1.28 -53.57,-62.24 -61.76,-73.3c0.11,18.39 -0.25,36.68 -0.01,55.11c5.11,0.94 8.92,0.79 11.65,4.56c-0.03,3.32 0.35,6.07 -1.2,8.92c-7.29,1.2 -30.27,0.7 -38.81,0.69c-0.49,-5.91 -1.78,-7.98 2.55,-12.11c3.11,-0.66 3.89,-0.62 6.67,-2.21c3.13,-5.21 1.72,-63.02 1.84,-73.97c-5.44,-8.08 -7.42,-6.09 -14.63,-11.44c-1.98,-2.97 -1.26,-6.65 -1.06,-10.38z" fill="rgb(235,230,198)" id="svg_18" transform="translate(0,0)"/>
  <path d="m469.79,1109.49l0.01,-55.68c0.01,-6.71 0.2,-13.84 0.25,-20.49c0.03,-4.7 -8.99,-9.2 -10.95,-15.04c0.8,-3.7 -0.06,-2.22 2.42,-4.77c5.4,-0.83 41.37,-1.65 43.93,0.76c1.56,1.47 1.94,2.64 2.3,4.67c-2.37,7.24 -11.87,6.65 -12.5,10.95c-0.81,5.61 -0.16,15.04 0.08,20.87c5.56,-5.53 19.9,-18.56 23.61,-23.84c-0.37,-4.69 -6.06,-2.87 -2.42,-10.82c7.1,-5.72 27.73,-2.8 38.08,-2.83c0.17,3.45 0.82,7.93 -0.62,10.82c-1.7,0.69 -9.43,3.74 -10.4,4.67c-11.28,10.79 -23.18,22.86 -34.28,33.74c13.55,13.23 26.08,27.41 39.18,41.08c4.69,4.9 14.24,5.79 13.33,12.96c-0.34,2.71 0.56,3.95 -1.27,6.07c-8.47,0.96 -21.39,0.44 -30.22,0.35c-11.26,-14.19 -23.4,-27.86 -35.31,-41.52c0.05,8.93 0.27,18.5 0.06,27.38c3.53,0.56 7.87,0.74 10.29,3.04c1.52,3.35 0.85,6.16 0.54,9.91c-2.44,2.1 -43.02,1.98 -45.48,-0.29c-0.44,-3.63 -0.79,-5.12 -0.27,-8.81c2.83,-2.54 5.45,-2.34 9.64,-3.18z" fill="url(#Gradient1)" id="svg_19" transform="translate(0,0)"/>
  <path d="m469.79,1109.49c-3.63,5.05 -8.65,1.77 -8.81,6.01c9.85,4.82 9.73,-3.89 15.41,-6.26c8.92,-0.48 14.06,5.92 20.53,11.28c4.26,-0.02 5.14,-0.27 8.98,1.25c-2.44,2.1 -43.02,1.98 -45.48,-0.29c-0.44,-3.63 -0.79,-5.12 -0.27,-8.81c2.83,-2.54 5.45,-2.34 9.64,-3.18z" fill="rgb(215,207,176)" id="svg_20" transform="translate(0,0)"/>
  <path d="m912.11,1010.41c14.24,-0.47 26.91,2.7 39.46,9.27c-0.82,10.65 2.09,20.91 -2.56,27.83c-3.08,2.1 -6.38,1.53 -10.23,1.47c-4.34,-13.05 -5.91,-21.23 -21.42,-22.36c-22.72,-1.91 -33.06,20.26 -32.88,40.04c0.26,30.2 12.52,43.46 42.1,43.36c0.28,-6.71 1.14,-17.3 -0.12,-23.48c-5.21,-3.29 -12.4,-4.36 -14.37,-10.65c1.58,-8.61 16.57,-5.89 24.16,-5.9l28.83,0.08c0.58,4.7 1.92,8.45 -1.65,11.87c-3.32,0.23 -4.67,0.05 -7.59,1.7c-4.84,6.13 -2.99,24.68 -2.88,33.69c-8.13,3.7 -16.79,6.12 -25.66,7.19c-17.98,2.33 -37.2,0.52 -52.17,-11.23c-24.85,-19.52 -25.65,-60.06 -6.04,-83.4c11.41,-13.59 26.19,-18.06 43.02,-19.48z" fill="rgb(235,230,198)" id="svg_21" transform="translate(0,0)"/>
  <path d="m618.19,1068.25c-0.13,-9.36 0.66,-31.26 -0.52,-38.23c-4.19,-3.14 -11.83,-8.06 -12.81,-13.02c3.22,-4.46 7.92,-3.9 13.18,-3.93c11.95,-0.07 23.91,-0.01 35.85,0.03c0.46,3.77 1.34,7 -0.3,10.3c-2.72,1.7 -3.14,1.59 -6.22,2.23c-5.8,5.98 -3.06,38.19 -3.11,47.93c-1.14,0.04 -6.82,0.34 -7.63,0.25c-4.9,1.61 -10.78,4.02 -15.52,2.54c-2.67,-2.49 -1.79,-2.04 -2.15,-6.96l-0.77,-1.14z" fill="rgb(235,230,198)" id="svg_22" transform="translate(0,0)"/>
  <path d="m618.19,1068.25l0.77,1.14c0.36,4.92 -0.52,4.47 2.15,6.96c4.74,1.48 10.62,-0.93 15.52,-2.54c0.81,0.09 6.49,-0.21 7.63,-0.25c-0.19,9.11 -1.23,24.4 1.1,33.15c0.86,3.23 3.57,3.82 6.66,5.01l1.49,0.56c2.15,3.01 1.37,6.92 1.18,10.79l-47.64,-0.12c-0.21,-5.72 -1.28,-7.98 2.85,-11.95c2.79,-0.41 4.13,-0.35 6.43,-2.01c3.03,-6.31 1.81,-31.39 1.86,-40.74z" fill="rgb(215,207,176)" id="svg_23" transform="translate(0,0)"/>
  <path d="m204.73,1988.2c2.94,-0.11 11.34,-0.55 13.7,0.33c20.2,7.49 14.71,23.82 -1.66,30.43c-1.56,0.28 -3.13,0.53 -4.69,0.76c-4.03,0.55 -4.83,0.66 -7.54,-1.43c-0.19,-4.3 5.69,-12.25 8.29,-16.46l-14.07,-0.6c1.87,-4.78 3.71,-8.48 5.97,-13.03z" fill="rgb(241,240,240)" id="svg_24" transform="translate(0,0)"/>
  <path d="m182.53,1988.03l14.31,0.07l-7.13,18.67l12.55,0.32c-2.14,6.11 -5.94,14.46 -8.51,20.6l-1.27,0.08c-3.46,-3.22 0.47,-1.17 -1.91,-7.11c-5.36,-1.35 -15.33,-0.78 -21.28,-0.69c2.92,-9.11 9.15,-23.35 13.24,-31.94z" fill="rgb(241,240,240)" id="svg_25" transform="translate(0,0)"/>
  <path d="m336.27,1999.41c5.74,1.95 1.65,2.73 3.42,6.05c3.44,-3.66 3.93,-5.54 8.97,-5.17c0.73,2.25 0.26,1.47 -1.26,4.8c1.8,1.71 3.3,0.98 6.71,0.94l0.95,1.44c-0.07,4.08 -0.86,6.45 2.54,8.95c3.54,-2 1.07,-8.92 4.69,-11.66l2.02,1.46c1.18,2.78 0.89,10.29 0.93,13.71c-5.1,0.13 -9.34,1.01 -13.32,-1.71c-2.25,-3.41 -1.92,-5.62 -2.18,-9.88c-5.23,2.78 -0.81,5.78 -3.95,11.3l-2.73,0c-2.96,-4.24 0.65,-5.91 -2.03,-10.21l-2.07,0.02c-3.25,5.56 0.94,5.32 -2.44,10.54l-2.01,0.03c-3.86,-4.79 -0.25,-5.58 -3.35,-10.39c-2.15,3.27 -1.02,6.13 -2.53,10.25l-1.62,-0.37c-2.36,-3.48 -4.61,-10.7 -1.08,-13.82c2.45,0.25 2.9,0.36 5.32,0.09l5.02,-6.37z" fill="rgb(241,240,240)" id="svg_26" transform="translate(0,0)"/>
  <path d="m269.34,2005.81c4.57,0.09 8.26,-0.15 12.79,-0.45c0.03,7.67 1.87,15.99 -4.09,21.12c-3.95,1.18 -5.28,0.51 -9.49,-0.37c-0.4,-2.29 -0.31,-1.68 -0.1,-4.05c3.96,-1.67 3.4,1.52 8.06,0.44l0.03,-1.81c-10.32,-2.66 -12.33,-4.66 -7.2,-14.88z" fill="rgb(241,240,240)" id="svg_27" transform="translate(0,0)"/>
  <path d="m306.32,2002.03c11.78,-0.25 21.24,2.14 14.31,16.34c-5.64,2.06 -8.26,1.64 -14.26,1.66l-0.05,-18z" fill="rgb(241,240,240)" id="svg_28" transform="translate(0,0)"/>
  <path d="m82.36,2000.67c2,2.63 2.41,6.77 2.47,10.11c0.16,9.87 -6.35,9.51 -12.73,9.17c-2.08,-2.94 -3.12,-6.36 -2.94,-9.95c3.7,-3.91 7.04,-1.97 12.48,-4.83l0.72,-4.5z" fill="rgb(241,240,240)" id="svg_29" transform="translate(0,0)"/>
  <path d="m74.14,2008.67c1.57,-0.89 3.49,-0.86 5.03,0.08c1.54,0.93 2.45,2.63 2.38,4.43c-0.07,1.8 -1.11,3.42 -2.72,4.24c-2.4,1.22 -5.34,0.29 -6.61,-2.08c-1.28,-2.38 -0.42,-5.34 1.92,-6.67z" fill="rgb(0,0,0)" id="svg_30" transform="translate(0,0)"/>
  <path d="m55.7,2005.95c9.26,0.03 14.65,1.05 10.75,13.22l-1.86,-0.07c-11.5,2.37 -16.09,-3.27 -8.89,-13.15z" fill="rgb(241,240,240)" id="svg_31" transform="translate(0,0)"/>
  <path d="m57.14,2008.6c1.61,-0.89 3.57,-0.83 5.11,0.17c1.55,1 2.42,2.76 2.27,4.59c-0.15,1.83 -1.3,3.43 -2.98,4.16c-2.44,1.06 -5.28,0.02 -6.45,-2.37c-1.18,-2.38 -0.27,-5.27 2.05,-6.55z" fill="rgb(0,0,0)" id="svg_32" transform="translate(0,0)"/>
  <path d="m392.05,2006.46c2.35,-1.47 5.31,-1.54 7.73,-0.19c2.41,1.35 3.91,3.91 3.89,6.68c-0.02,2.77 -1.54,5.31 -3.98,6.63c-3.61,1.96 -8.12,0.7 -10.19,-2.85c-2.06,-3.55 -0.94,-8.1 2.55,-10.27z" fill="rgb(241,240,240)" id="svg_33" transform="translate(0,0)"/>
  <path d="m287.51,2006.58c3.56,-2.22 8.24,-1.14 10.46,2.42c2.22,3.55 1.14,8.23 -2.42,10.45c-3.55,2.22 -8.23,1.14 -10.45,-2.41c-2.22,-3.56 -1.14,-8.24 2.41,-10.46z" fill="rgb(241,240,240)" id="svg_34" transform="translate(0,0)"/>
  <path d="m257.37,2005.33c3.9,-0.52 7.55,2.05 8.38,5.9c0.83,3.84 -1.43,7.69 -5.2,8.83c-2.73,0.82 -5.68,0.04 -7.65,-2.01c-1.97,-2.06 -2.61,-5.05 -1.67,-7.73c0.94,-2.69 3.31,-4.61 6.14,-4.99z" fill="rgb(241,240,240)" id="svg_35" transform="translate(0,0)"/>
  <path d="m405.4,2005.67c2.94,-0.03 9.11,-0.48 11.32,1.12c4.71,3.4 5.35,7.75 1.81,12.18l-2.04,0.2c-2.29,-2.84 -1.52,-2.6 -1.75,-7.14c-0.19,-1.59 0,-0.81 -1.61,-2.31l-1.67,0.73c-1.69,5.3 0.51,6.09 -2.9,10.04l-1.63,-0.18c-1.97,-3.15 -1.52,-10.81 -1.53,-14.64z" fill="rgb(241,240,240)" id="svg_36" transform="translate(0,0)"/>
  <path d="m32.63,2001.53c2.76,2.6 6.55,11.39 8.35,15.15c2.76,-6.92 4.65,-10.88 8.15,-17.48c0.46,8.17 0.55,11.14 -0.4,19.21l-1.05,0.7l-0.39,-1.91c-0.16,-2.71 0.25,-4.67 -1.07,-6.46c-1.58,3.26 -2.54,6.92 -6.26,7.39c-2.93,-2.47 -3.53,-5.86 -4.73,-9.57c-0.28,2.93 -0.41,8.17 -2.28,9.99c-1.64,-5.31 -1.08,-11.57 -0.32,-17.02z" fill="rgb(241,240,240)" id="svg_37" transform="translate(0,0)"/>
  <path d="m369.06,2005.65c4.19,0.01 4.89,-0.09 8.85,0.99c3.22,6 -1.69,-0.06 -1.16,5.78c2.52,2.67 2.13,1.47 2.87,4.61c-1.51,2.63 -3.38,3.04 -6.19,4.3c-3.47,-1.71 -3.37,-1.58 -5.97,-4.4l0.21,-1.26c2.51,-0.47 3.57,-0.4 6.1,-0.43c-2.49,-0.94 -2.95,-1.14 -5.23,-2.49c-1.2,-3.69 -0.78,-2.64 0.52,-7.1z" fill="rgb(241,240,240)" id="svg_38" transform="translate(0,0)"/>
  <path d="m90.62,2005.71c4.64,0.18 6.32,0.75 10,3.1l-0.08,1.93c-3.77,2.87 -5.86,3.23 -10.31,4.97l1.09,1.74l2.95,0.29c3,-1.25 1.82,-1.19 4.81,-0.98l-0.27,1.29c-3.45,2.02 -5.86,3 -9.63,1.13c-4.33,-5.3 -2.44,-9.11 1.44,-13.47z" fill="rgb(241,240,240)" id="svg_39" transform="translate(0,0)"/>
  <path d="m239.63,2001.24c1.49,0.42 2.15,0.77 3.57,1.39c2.23,4.34 -0.2,6.6 1.37,12.93c1.41,0.6 1.97,0.81 3.47,1.25l1.25,0.35l0.95,2.45c-3.7,0.36 -6.6,1.21 -9.59,-0.66c-3.03,-4.67 -1.48,-11.77 -1.02,-17.71z" fill="rgb(241,240,240)" id="svg_40" transform="translate(0,0)"/>
  <path d="m146.02,2001.5c2.05,1.53 1.14,0.81 2.25,3.89c2.17,1.74 3.58,1.43 6.44,1.52l1.12,0.02c3.4,2.66 3.36,9.32 1.54,12.67c-1.79,-3.13 -1.46,-4.57 -1.43,-8.18l0.01,-1.3c-1.45,-2.13 -2.48,-2.45 -4.79,-2.27c-2.84,2.14 -3.64,7.46 -4.67,11.18c-0.68,-6.31 -0.55,-11.2 -0.47,-17.53z" fill="rgb(241,240,240)" id="svg_41" transform="translate(0,0)"/>
  <path d="m381.97,2005.02c2.37,0.43 2.22,0.4 4.26,1.7c1.77,4.3 0.96,9.06 0.68,13.88l-3.79,-1.09c-2.23,-4.05 -1.31,-9.56 -1.15,-14.49z" fill="rgb(241,240,240)" id="svg_42" transform="translate(0,0)"/>
  <path d="m137.01,2002.47c2.63,2.05 3.34,2.02 4.53,4.81l-2.39,5.09c0.13,3.62 -0.03,3.42 1.83,6.48l1.33,0.68c-3.08,0.63 -1.72,0.9 -4.26,-0.57c-2.01,-4.59 -2.58,-11.68 -1.04,-16.49z" fill="rgb(241,240,240)" id="svg_43" transform="translate(0,0)"/>
  <path d="m131.88,2005.58c3.1,3.43 1.8,10.55 1.01,14.81l-1.44,-1.24c-1.44,-5.15 -0.99,-8.48 0.43,-13.57z" fill="rgb(241,240,240)" id="svg_44" transform="translate(0,0)"/>
 </g>
</svg>