<svg preserveAspectRatio="none" viewBox="0 110.592 2007.04 1794.048" style="max-height: 500px" xmlns="http://www.w3.org/2000/svg" version="1.1" width="2007.04" height="1794.048">
<defs>
	<linearGradient y2="1008.4" x2="496.493" y1="1127.24" x1="516.963" gradientUnits="userSpaceOnUse" id="Gradient1">
		<stop stop-color="rgb(212,205,175)" stop-opacity="1" offset="0" class="stop0"/>
		<stop stop-color="rgb(249,243,211)" stop-opacity="1" offset="1" class="stop1"/>
	</linearGradient>
</defs>
<path d="M 0 0 L 2048 0 L 2048 2048 L 0 2048 L 0 0 z" fill="rgb(0,0,0)" transform="translate(0,0)"/>
<path d="M 1028.61 718.789 C 1031.63 718.428 1033.41 719.42 1035.93 721.15 C 1052.73 732.708 1069.61 744.305 1086.43 755.829 L 1195.97 830.714 L 1270.28 881.066 C 1282.16 889.059 1297.57 898.294 1308.43 906.718 C 1309.11 917.879 1310.22 974.889 1307.37 982.772 C 1302.39 986.291 1287.79 985.161 1281.05 985.055 C 1280.2 964.499 1281.62 943.044 1280.04 922.466 C 1272.12 915.823 1254.24 904.424 1245.05 898.242 L 1184.87 857.448 C 1136.06 824.229 1082.74 785.248 1033.51 754.103 C 1032.68 753.771 1032.15 753.438 1031.25 753.475 C 1027.41 753.632 800.583 907.584 783.212 921.733 C 782.871 942.803 783.753 964.024 782.979 985.144 C 775.813 985.398 763.077 986.476 756.548 984.066 C 753.427 978.595 754.834 916.436 754.857 906.328 C 764.101 899.098 779.44 889.654 789.568 882.924 C 806.7 871.502 823.693 859.871 840.543 848.037 C 901.528 805.668 966.714 759.383 1028.61 718.789 z" fill="rgb(241,240,240)" transform="translate(0,0)"/>
<path d="M 755.963 1149.19 C 765.288 1148.93 773.569 1149.04 782.856 1149.25 C 783.606 1158.19 783.249 1173.05 783.263 1182.55 L 783.179 1242.98 L 1280.5 1242.86 C 1281.26 1211.93 1280.19 1180.91 1281.01 1149.36 C 1311.13 1148.08 1309.66 1147.54 1308.97 1177.5 L 1309.01 1232.36 C 1309 1243.94 1309.41 1259.47 1307.67 1270.63 C 1289.96 1272.01 1257.26 1271.11 1238.88 1271.11 L 1108.17 1271.07 L 886.491 1271.02 C 869.134 1271.02 766.591 1272.71 756.712 1269.01 C 754.072 1260.97 753.951 1158.14 755.963 1149.19 z" fill="rgb(241,240,240)" transform="translate(0,0)"/>
<path d="M 1029.45 781.77 C 1039.09 784.541 1140.12 857.05 1156.46 868.379 L 1253 934.135 C 1253.1 947.566 1253.82 972.641 1252.18 985.257 C 1243.37 986 1233.9 985.462 1225.01 985.189 C 1223.74 974.376 1224 960.199 1223.88 949.078 C 1212.75 939.831 1180.33 919.086 1166.74 909.824 C 1122.72 879.821 1077.91 847.636 1033.46 818.598 L 1031.35 817.405 C 1027.01 817.5 1002.12 835.444 996.125 839.51 L 922.133 890.507 L 870.683 926.108 C 861.462 932.497 847.213 941.758 839.228 948.976 C 838.845 961.112 839.134 972.733 838.47 985.053 C 829.355 985.597 820.214 985.583 811.1 985.012 C 810.326 968.85 810.812 949.771 810.886 933.385 C 841.275 910.341 882.734 883.868 914.678 861.36 C 939.095 844.001 963.636 826.817 988.299 809.809 C 1000.52 801.296 1016.92 789.168 1029.45 781.77 z" fill="rgb(241,240,240)" transform="translate(0,0)"/>
<path d="M 811.885 1149.16 C 821.22 1149.07 828.622 1148.95 837.972 1149.81 C 839.425 1163.31 838.489 1183.37 838.544 1197.71 L 1224.76 1197.99 C 1224.63 1182.13 1224.27 1165.85 1225.09 1150.04 C 1234.87 1149.18 1243.15 1149.43 1252.9 1150.06 C 1253.12 1159.15 1253.05 1168.59 1253.11 1177.71 C 1253.24 1186.54 1255.07 1219.14 1250.72 1225.27 C 1242.47 1226.54 1214.88 1226.03 1205.54 1226.03 L 1114.11 1225.96 L 905.965 1226.05 C 893.474 1226.06 820.219 1226.98 811.803 1224.47 C 809.119 1216.65 808.737 1156.16 811.885 1149.16 z" fill="rgb(241,240,240)" transform="translate(0,0)"/>
<path d="M 1198.25 1010.76 C 1230.02 1007.98 1257.98 1031.6 1260.54 1063.39 C 1263.11 1095.18 1239.3 1122.97 1207.5 1125.32 C 1175.99 1127.65 1148.52 1104.12 1145.98 1072.64 C 1143.44 1041.15 1166.78 1013.51 1198.25 1010.76 z" fill="rgb(235,230,198)" transform="translate(0,0)"/>
<path d="M 1196.1 1027.25 C 1209.49 1025.58 1219.83 1030.44 1225.14 1043.19 C 1234.2 1064.91 1233.91 1097.96 1210.17 1109.48 C 1169.37 1115.57 1164.56 1042.83 1196.1 1027.25 z" fill="rgb(0,0,0)" transform="translate(0,0)"/>
<path d="M 1310.18 1091.47 C 1300.19 1069.06 1305.53 1042.78 1323.47 1026.05 C 1341.42 1009.32 1368 1005.82 1389.66 1017.35 C 1411.31 1028.88 1423.26 1052.89 1419.4 1077.11 C 1418.9 1080.23 1418.15 1083.29 1417.15 1086.28 C 1409.64 1108.76 1389.11 1124.31 1365.44 1125.46 C 1341.77 1126.61 1319.83 1113.11 1310.18 1091.47 z" fill="rgb(235,230,198)" transform="translate(0,0)"/>
<path d="M 1336.06 1079.57 C 1335.5 1066.06 1335.65 1041.95 1346.4 1033.6 C 1376.91 1009.89 1390.87 1050.28 1389.51 1072.87 C 1389.31 1075.82 1389.03 1078.77 1388.66 1081.7 L 1388.79 1083.38 C 1385.47 1094.35 1381.15 1105.27 1369.06 1109.12 C 1363.4 1110.96 1357.22 1110.25 1352.13 1107.18 C 1342.25 1101.29 1338.53 1090.03 1336.06 1079.57 z" fill="rgb(0,0,0)" transform="translate(0,0)"/>
<path d="M 1336.06 1079.57 C 1338.53 1090.03 1342.25 1101.29 1352.13 1107.18 C 1357.22 1110.25 1363.4 1110.96 1369.06 1109.12 C 1381.15 1105.27 1385.47 1094.35 1388.79 1083.38 L 1390.16 1085.32 C 1403.63 1084.66 1407.87 1086.53 1417.15 1086.28 C 1409.64 1108.76 1389.11 1124.31 1365.44 1125.46 C 1341.77 1126.61 1319.83 1113.11 1310.18 1091.47 C 1312.79 1092.88 1316.79 1099.82 1318.53 1102.78 C 1334.3 1129.61 1380.24 1130.08 1400.77 1108.98 C 1401.58 1108.14 1401.77 1107.32 1401.91 1106.22 L 1399 1105.26 C 1394.4 1104.87 1393.3 1107.33 1388.93 1109.33 C 1389.29 1110.91 1389.12 1110.71 1388.92 1112.41 L 1387.41 1112.04 C 1387.01 1107.73 1386.82 1104.47 1385.74 1100.22 L 1384.43 1100.2 C 1374.46 1110.52 1375.86 1109.19 1361.6 1113.18 C 1347.93 1108.57 1331.98 1095.43 1336.06 1079.57 z" fill="rgb(215,207,176)" transform="translate(0,0)"/>
<path d="M 1388.93 1109.33 C 1385.91 1098.78 1398.7 1097.84 1402.7 1102.49 L 1402.24 1104.23 L 1399 1105.26 C 1394.4 1104.87 1393.3 1107.33 1388.93 1109.33 z" fill="rgb(229,220,187)" transform="translate(0,0)"/>
<path d="M 1388.66 1081.7 C 1401.29 1082.81 1404.63 1077 1419.4 1077.11 C 1418.9 1080.23 1418.15 1083.29 1417.15 1086.28 C 1407.87 1086.53 1403.63 1084.66 1390.16 1085.32 L 1388.79 1083.38 L 1388.66 1081.7 z" fill="rgb(229,220,187)" transform="translate(0,0)"/>
<path d="M 1476.92 1026.82 C 1472.01 1025.86 1468.34 1026.04 1465.78 1022.45 C 1465.87 1019.38 1465.53 1015.91 1467.05 1013.46 C 1474.05 1012.08 1493.06 1012.64 1501.4 1012.69 C 1510.26 1030.65 1522.94 1058.54 1532.57 1075.32 C 1542.34 1054.63 1551.68 1033.54 1561.52 1012.98 C 1570.02 1012.91 1588.97 1012.29 1596.44 1013.53 C 1598.27 1015.75 1599.22 1022.71 1596.82 1024.53 C 1594.84 1026.03 1590.07 1026.72 1587.43 1027.25 C 1586.14 1052.66 1588.42 1078.64 1587.21 1104.13 C 1587.01 1108.34 1597.35 1111.77 1599.85 1116.4 C 1599.76 1120.49 1600.25 1118.52 1597.63 1122.31 C 1592.96 1123.11 1555.74 1123.64 1552.8 1122.48 C 1550.11 1119.63 1550.93 1119.59 1550.22 1114.81 L 1549.08 1111.15 C 1546.69 1109.65 1539.64 1108.98 1535.63 1107.93 C 1535.06 1109.3 1534.33 1110.51 1533.62 1111.82 C 1530.7 1113.43 1526.33 1112.8 1522.79 1112.67 C 1513.25 1094.78 1505.01 1076.44 1495.29 1058.34 C 1495.78 1066.11 1495.31 1077 1495.2 1084.99 C 1495.59 1091.92 1495.27 1101.1 1495.23 1108.2 C 1498.86 1109.47 1503.36 1110.68 1507.1 1111.81 C 1507.03 1115.37 1506.67 1119.28 1506.42 1122.86 C 1496.34 1122.98 1477.36 1123.63 1468.02 1122.57 C 1465.36 1120.66 1466.32 1121.44 1464.67 1118.16 C 1465.44 1111.39 1471.42 1111.62 1475.64 1107.63 C 1479.33 1104.13 1476.77 1056.79 1477.5 1047.23 C 1477.41 1040.43 1477.22 1033.62 1476.92 1026.82 z" fill="rgb(235,230,198)" transform="translate(0,0)"/>
<path d="M 1477.5 1047.23 C 1480.29 1054.76 1476.34 1076.33 1478.95 1086.02 C 1484.24 1088.9 1491.12 1083.87 1495.2 1084.99 C 1495.59 1091.92 1495.27 1101.1 1495.23 1108.2 C 1498.86 1109.47 1503.36 1110.68 1507.1 1111.81 C 1507.03 1115.37 1506.67 1119.28 1506.42 1122.86 C 1496.34 1122.98 1477.36 1123.63 1468.02 1122.57 C 1465.36 1120.66 1466.32 1121.44 1464.67 1118.16 C 1465.44 1111.39 1471.42 1111.62 1475.64 1107.63 C 1479.33 1104.13 1476.77 1056.79 1477.5 1047.23 z" fill="rgb(215,207,176)" transform="translate(0,0)"/>
<path d="M 1562.88 1050.44 C 1562.91 1069.43 1563.29 1089.62 1562.76 1108.52 C 1558.3 1109.67 1555.84 1110.3 1551.59 1111.99 C 1551.22 1112.7 1550.43 1114.12 1550.22 1114.81 L 1549.08 1111.15 C 1546.69 1109.65 1539.64 1108.98 1535.63 1107.93 C 1544.84 1088.82 1553.92 1069.66 1562.88 1050.44 z" fill="rgb(22,22,13)" transform="translate(0,0)"/>
<path d="M 1005.78 1012.96 C 1024.6 1012.47 1048.04 1011.7 1066.48 1013.96 C 1084.41 1016.16 1094.99 1032.83 1089.54 1050.04 C 1085.81 1061.82 1080.2 1065.93 1069.94 1072.11 C 1078.85 1083 1086.65 1095.88 1095.45 1106.94 C 1097.15 1109.07 1104.04 1110.87 1104.63 1112.57 C 1105.59 1115.36 1105.24 1119.63 1104.03 1122.39 C 1097.69 1123.59 1081.62 1123.14 1074.45 1123.13 L 1067.56 1112.5 C 1060.34 1100.49 1051.44 1085.02 1042.28 1074.71 C 1041.91 1083.37 1039.31 1105.48 1046.28 1110.64 C 1049.19 1111.14 1049.76 1111.21 1052.5 1112.21 C 1054.29 1115.54 1053.41 1119.1 1053.01 1122.97 C 1045 1122.87 1009.84 1124.33 1006.21 1121.24 C 1005.88 1117.17 1005.92 1117.1 1006.62 1113.04 C 1009.35 1110.3 1011.73 1110.47 1015.96 1109.42 C 1017.08 1082.03 1016.37 1054.68 1016.75 1027.31 C 1013.1 1026.31 1009.08 1025.65 1006.34 1023.21 C 1004.55 1019.81 1005.38 1016.91 1005.78 1012.96 z" fill="rgb(235,230,198)" transform="translate(0,0)"/>
<path d="M 1042.99 1026.06 C 1064.3 1027.33 1070.24 1043.14 1058.01 1059.89 C 1054.03 1062.51 1047.84 1065.33 1043.13 1063.51 C 1041.27 1059.18 1041.31 1030.72 1042.99 1026.06 z" fill="rgb(22,22,13)" transform="translate(0,0)"/>
<path d="M 700.196 1013.03 L 732.803 1012.9 C 745.4 1030.62 769.341 1058.51 783.832 1076.66 C 783.771 1066.24 786.366 1032.89 780.059 1026.6 C 777.018 1025.51 776.291 1025.3 773.394 1023.67 C 771.568 1020.56 772.523 1016.8 772.934 1013.04 C 782.356 1012.93 804.215 1012.01 812.534 1014.09 C 815.02 1017.19 814.3 1015.48 814.792 1019.4 C 812.314 1024.59 802.633 1028.12 802.3 1033.02 C 801.9 1038.9 802.336 1046.41 802.371 1052.44 L 802.322 1099.8 C 802.306 1106.95 802.427 1114.43 802.294 1121.57 C 802.229 1125.03 801.018 1125.56 798.904 1127.36 C 797.637 1127.34 796.204 1127.34 794.962 1127.16 C 786.23 1125.88 741.39 1064.92 733.202 1053.86 C 733.313 1072.25 732.954 1090.54 733.188 1108.97 C 738.304 1109.91 742.106 1109.76 744.84 1113.53 C 744.813 1116.85 745.189 1119.6 743.641 1122.45 C 736.346 1123.65 713.366 1123.15 704.828 1123.14 C 704.34 1117.23 703.052 1115.16 707.382 1111.03 C 710.489 1110.37 711.275 1110.41 714.053 1108.82 C 717.176 1103.61 715.775 1045.8 715.888 1034.85 C 710.448 1026.77 708.473 1028.76 701.261 1023.41 C 699.283 1020.44 700.004 1016.76 700.196 1013.03 z" fill="rgb(235,230,198)" transform="translate(0,0)"/>
<path d="M 469.792 1109.49 L 469.798 1053.81 C 469.806 1047.1 469.996 1039.97 470.048 1033.32 C 470.084 1028.62 461.056 1024.12 459.097 1018.28 C 459.901 1014.58 459.036 1016.06 461.518 1013.51 C 466.916 1012.68 502.886 1011.86 505.454 1014.27 C 507.006 1015.74 507.394 1016.91 507.754 1018.94 C 505.378 1026.18 495.879 1025.59 495.255 1029.89 C 494.44 1035.5 495.09 1044.93 495.334 1050.76 C 500.888 1045.23 515.232 1032.2 518.943 1026.92 C 518.572 1022.23 512.878 1024.05 516.525 1016.1 C 523.615 1010.38 544.254 1013.3 554.6 1013.27 C 554.766 1016.72 555.421 1021.2 553.982 1024.09 C 552.277 1024.78 544.546 1027.83 543.575 1028.76 C 532.299 1039.55 520.403 1051.62 509.3 1062.5 C 522.852 1075.73 535.379 1089.91 548.477 1103.58 C 553.172 1108.48 562.716 1109.37 561.814 1116.54 C 561.474 1119.25 562.37 1120.49 560.538 1122.61 C 552.069 1123.57 539.155 1123.05 530.318 1122.96 C 519.062 1108.77 506.919 1095.1 495.014 1081.44 C 495.055 1090.37 495.279 1099.94 495.073 1108.82 C 498.595 1109.38 502.942 1109.56 505.362 1111.86 C 506.879 1115.21 506.207 1118.02 505.905 1121.77 C 503.458 1123.87 462.883 1123.75 460.419 1121.48 C 459.981 1117.85 459.632 1116.36 460.154 1112.67 C 462.981 1110.13 465.597 1110.33 469.792 1109.49 z" fill="url(#Gradient1)" transform="translate(0,0)"/>
<path d="M 469.792 1109.49 C 466.156 1114.54 461.142 1111.26 460.978 1115.5 C 470.835 1120.32 470.709 1111.61 476.387 1109.24 C 485.313 1108.76 490.45 1115.16 496.916 1120.52 C 501.18 1120.5 502.062 1120.25 505.905 1121.77 C 503.458 1123.87 462.883 1123.75 460.419 1121.48 C 459.981 1117.85 459.632 1116.36 460.154 1112.67 C 462.981 1110.13 465.597 1110.33 469.792 1109.49 z" fill="rgb(215,207,176)" transform="translate(0,0)"/>
<path d="M 912.109 1010.41 C 926.351 1009.94 939.024 1013.11 951.568 1019.68 C 950.753 1030.33 953.663 1040.59 949.012 1047.51 C 945.932 1049.61 942.626 1049.04 938.783 1048.98 C 934.438 1035.93 932.874 1027.75 917.357 1026.62 C 894.64 1024.71 884.304 1046.88 884.476 1066.66 C 884.738 1096.86 897.003 1110.12 926.582 1110.02 C 926.859 1103.31 927.72 1092.72 926.462 1086.54 C 921.251 1083.25 914.064 1082.18 912.094 1075.89 C 913.671 1067.28 928.663 1070 936.25 1069.99 L 965.076 1070.07 C 965.662 1074.77 966.999 1078.52 963.43 1081.94 C 960.113 1082.17 958.757 1081.99 955.838 1083.64 C 950.997 1089.77 952.853 1108.32 952.958 1117.33 C 944.826 1121.03 936.172 1123.45 927.302 1124.52 C 909.321 1126.85 890.096 1125.04 875.126 1113.29 C 850.284 1093.77 849.483 1053.23 869.087 1029.89 C 880.501 1016.3 895.284 1011.83 912.109 1010.41 z" fill="rgb(235,230,198)" transform="translate(0,0)"/>
<path d="M 618.19 1068.25 C 618.062 1058.89 618.848 1036.99 617.675 1030.02 C 613.483 1026.88 605.837 1021.96 604.86 1017 C 608.076 1012.54 612.781 1013.1 618.042 1013.07 C 629.99 1013 641.945 1013.06 653.894 1013.1 C 654.353 1016.87 655.233 1020.1 653.592 1023.4 C 650.871 1025.1 650.453 1024.99 647.373 1025.63 C 641.574 1031.61 644.311 1063.82 644.261 1073.56 C 643.12 1073.6 637.444 1073.9 636.63 1073.81 C 631.727 1075.42 625.847 1077.83 621.108 1076.35 C 618.44 1073.86 619.321 1074.31 618.955 1069.39 L 618.19 1068.25 z" fill="rgb(235,230,198)" transform="translate(0,0)"/>
<path d="M 618.19 1068.25 L 618.955 1069.39 C 619.321 1074.31 618.44 1073.86 621.108 1076.35 C 625.847 1077.83 631.727 1075.42 636.63 1073.81 C 637.444 1073.9 643.12 1073.6 644.261 1073.56 C 644.072 1082.67 643.026 1097.96 645.36 1106.71 C 646.223 1109.94 648.929 1110.53 652.023 1111.72 L 653.515 1112.28 C 655.656 1115.29 654.881 1119.2 654.688 1123.07 L 607.047 1122.95 C 606.838 1117.23 605.775 1114.97 609.905 1111 C 612.694 1110.59 614.034 1110.65 616.332 1108.99 C 619.364 1102.68 618.138 1077.6 618.19 1068.25 z" fill="rgb(215,207,176)" transform="translate(0,0)"/>
<path d="M 204.728 1988.2 C 207.67 1988.09 216.067 1987.65 218.434 1988.53 C 238.626 1996.02 233.139 2012.35 216.766 2018.96 C 215.207 2019.24 213.644 2019.49 212.078 2019.72 C 208.051 2020.27 207.252 2020.38 204.536 2018.29 C 204.346 2013.99 210.228 2006.04 212.832 2001.83 L 198.757 2001.23 C 200.63 1996.45 202.468 1992.75 204.728 1988.2 z" fill="rgb(241,240,240)" transform="translate(0,0)"/>
<path d="M 182.531 1988.03 L 196.839 1988.1 L 189.712 2006.77 L 202.259 2007.09 C 200.116 2013.2 196.325 2021.55 193.75 2027.69 L 192.476 2027.77 C 189.023 2024.55 192.95 2026.6 190.571 2020.66 C 185.214 2019.31 175.239 2019.88 169.295 2019.97 C 172.206 2010.86 178.435 1996.62 182.531 1988.03 z" fill="rgb(241,240,240)" transform="translate(0,0)"/>
<path d="M 336.271 1999.41 C 342.007 2001.36 337.919 2002.14 339.689 2005.46 C 343.131 2001.8 343.623 1999.92 348.663 2000.29 C 349.392 2002.54 348.92 2001.76 347.398 2005.09 C 349.201 2006.8 350.696 2006.07 354.109 2006.03 L 355.062 2007.47 C 354.987 2011.55 354.205 2013.92 357.596 2016.42 C 361.138 2014.42 358.668 2007.5 362.289 2004.76 L 364.306 2006.22 C 365.489 2009 365.198 2016.51 365.239 2019.93 C 360.136 2020.06 355.896 2020.94 351.921 2018.22 C 349.666 2014.81 349.998 2012.6 349.738 2008.34 C 344.515 2011.12 348.93 2014.12 345.789 2019.64 L 343.063 2019.64 C 340.101 2015.4 343.71 2013.73 341.031 2009.43 L 338.964 2009.45 C 335.709 2015.01 339.903 2014.77 336.519 2019.99 L 334.506 2020.02 C 330.65 2015.23 334.259 2014.44 331.163 2009.63 C 329.009 2012.9 330.143 2015.76 328.627 2019.88 L 327.015 2019.51 C 324.654 2016.03 322.402 2008.81 325.928 2005.69 C 328.38 2005.94 328.827 2006.05 331.247 2005.78 L 336.271 1999.41 z" fill="rgb(241,240,240)" transform="translate(0,0)"/>
<path d="M 269.342 2005.81 C 273.912 2005.9 277.601 2005.66 282.134 2005.36 C 282.163 2013.03 284.004 2021.35 278.044 2026.48 C 274.088 2027.66 272.763 2026.99 268.546 2026.11 C 268.147 2023.82 268.244 2024.43 268.452 2022.06 C 272.408 2020.39 271.854 2023.58 276.507 2022.5 L 276.541 2020.69 C 266.22 2018.03 264.209 2016.03 269.342 2005.81 z" fill="rgb(241,240,240)" transform="translate(0,0)"/>
<path d="M 306.318 2002.03 C 318.1 2001.78 327.555 2004.17 320.633 2018.37 C 314.991 2020.43 312.368 2020.01 306.374 2020.03 L 306.318 2002.03 z" fill="rgb(241,240,240)" transform="translate(0,0)"/>
<path d="M 82.3611 2000.67 C 84.3644 2003.3 84.7727 2007.44 84.828 2010.78 C 84.9911 2020.65 78.4773 2020.29 72.0968 2019.95 C 70.0243 2017.01 68.9794 2013.59 69.1602 2010 C 72.8565 2006.09 76.2035 2008.03 81.6415 2005.17 L 82.3611 2000.67 z" fill="rgb(241,240,240)" transform="translate(0,0)"/>
<path d="M 74.1421 2008.67 C 75.7093 2007.78 77.6346 2007.81 79.173 2008.75 C 80.7114 2009.68 81.6217 2011.38 81.5515 2013.18 C 81.4813 2014.98 80.4417 2016.6 78.835 2017.42 C 76.4293 2018.64 73.49 2017.71 72.215 2015.34 C 70.94 2012.96 71.7957 2010 74.1421 2008.67 z" fill="rgb(0,0,0)" transform="translate(0,0)"/>
<path d="M 55.6973 2005.95 C 64.9569 2005.98 70.3531 2007 66.4481 2019.17 L 64.5867 2019.1 C 53.0907 2021.47 48.5034 2015.83 55.6973 2005.95 z" fill="rgb(241,240,240)" transform="translate(0,0)"/>
<path d="M 57.1402 2008.6 C 58.7464 2007.71 60.7118 2007.77 62.2544 2008.77 C 63.797 2009.77 64.6665 2011.53 64.5168 2013.36 C 64.3671 2015.19 63.2226 2016.79 61.5387 2017.52 C 59.1013 2018.58 56.2615 2017.54 55.0865 2015.15 C 53.9115 2012.77 54.8154 2009.88 57.1402 2008.6 z" fill="rgb(0,0,0)" transform="translate(0,0)"/>
<path d="M 392.047 2006.46 C 394.397 2004.99 397.358 2004.92 399.776 2006.27 C 402.194 2007.62 403.685 2010.18 403.667 2012.95 C 403.649 2015.72 402.126 2018.26 399.691 2019.58 C 396.081 2021.54 391.57 2020.28 389.504 2016.73 C 387.437 2013.18 388.564 2008.63 392.047 2006.46 z" fill="rgb(241,240,240)" transform="translate(0,0)"/>
<path d="M 287.514 2006.58 C 291.069 2004.36 295.751 2005.44 297.972 2009 C 300.192 2012.55 299.109 2017.23 295.554 2019.45 C 291.999 2021.67 287.318 2020.59 285.098 2017.04 C 282.878 2013.48 283.96 2008.8 287.514 2006.58 z" fill="rgb(241,240,240)" transform="translate(0,0)"/>
<path d="M 257.365 2005.33 C 261.268 2004.81 264.916 2007.38 265.748 2011.23 C 266.58 2015.07 264.318 2018.92 260.549 2020.06 C 257.825 2020.88 254.869 2020.1 252.901 2018.05 C 250.933 2015.99 250.287 2013 251.23 2010.32 C 252.173 2007.63 254.544 2005.71 257.365 2005.33 z" fill="rgb(241,240,240)" transform="translate(0,0)"/>
<path d="M 405.404 2005.67 C 408.344 2005.64 414.515 2005.19 416.723 2006.79 C 421.429 2010.19 422.07 2014.54 418.526 2018.97 L 416.488 2019.17 C 414.202 2016.33 414.971 2016.57 414.738 2012.03 C 414.552 2010.44 414.741 2011.22 413.131 2009.72 L 411.463 2010.45 C 409.774 2015.75 411.966 2016.54 408.564 2020.49 L 406.929 2020.31 C 404.963 2017.16 405.408 2009.5 405.404 2005.67 z" fill="rgb(241,240,240)" transform="translate(0,0)"/>
<path d="M 32.6338 2001.53 C 35.3901 2004.13 39.1773 2012.92 40.9841 2016.68 C 43.743 2009.76 45.6307 2005.8 49.131 1999.2 C 49.5878 2007.37 49.6771 2010.34 48.7274 2018.41 L 47.6835 2019.11 L 47.2882 2017.2 C 47.135 2014.49 47.5403 2012.53 46.22 2010.74 C 44.6439 2014 43.6845 2017.66 39.964 2018.13 C 37.0323 2015.66 36.4304 2012.27 35.232 2008.56 C 34.945 2011.49 34.823 2016.73 32.9532 2018.55 C 31.3065 2013.24 31.8702 2006.98 32.6338 2001.53 z" fill="rgb(241,240,240)" transform="translate(0,0)"/>
<path d="M 369.06 2005.65 C 373.25 2005.66 373.951 2005.56 377.912 2006.64 C 381.132 2012.64 376.217 2006.58 376.752 2012.42 C 379.273 2015.09 378.879 2013.89 379.623 2017.03 C 378.106 2019.66 376.244 2020.07 373.431 2021.33 C 369.956 2019.62 370.065 2019.75 367.463 2016.93 L 367.674 2015.67 C 370.179 2015.2 371.238 2015.27 373.767 2015.24 C 371.276 2014.3 370.819 2014.1 368.538 2012.75 C 367.336 2009.06 367.763 2010.11 369.06 2005.65 z" fill="rgb(241,240,240)" transform="translate(0,0)"/>
<path d="M 90.6165 2005.71 C 95.2647 2005.89 96.9389 2006.46 100.623 2008.81 L 100.542 2010.74 C 96.7676 2013.61 94.681 2013.97 90.2281 2015.71 L 91.3214 2017.45 L 94.2692 2017.74 C 97.2724 2016.49 96.0894 2016.55 99.0793 2016.76 L 98.8088 2018.05 C 95.3587 2020.07 92.9459 2021.05 89.1817 2019.18 C 84.852 2013.88 86.7436 2010.07 90.6165 2005.71 z" fill="rgb(241,240,240)" transform="translate(0,0)"/>
<path d="M 239.627 2001.24 C 241.124 2001.66 241.776 2002.01 243.199 2002.63 C 245.434 2006.97 243.002 2009.23 244.574 2015.56 C 245.98 2016.16 246.54 2016.37 248.045 2016.81 L 249.294 2017.16 L 250.242 2019.61 C 246.544 2019.97 243.644 2020.82 240.654 2018.95 C 237.623 2014.28 239.167 2007.18 239.627 2001.24 z" fill="rgb(241,240,240)" transform="translate(0,0)"/>
<path d="M 146.023 2001.5 C 148.07 2003.03 147.164 2002.31 148.266 2005.39 C 150.445 2007.13 151.852 2006.82 154.713 2006.91 L 155.833 2006.93 C 159.229 2009.59 159.191 2016.25 157.365 2019.6 C 155.582 2016.47 155.914 2015.03 155.935 2011.42 L 155.952 2010.12 C 154.499 2007.99 153.465 2007.67 151.165 2007.85 C 148.319 2009.99 147.521 2015.31 146.488 2019.03 C 145.81 2012.72 145.944 2007.83 146.023 2001.5 z" fill="rgb(241,240,240)" transform="translate(0,0)"/>
<path d="M 381.969 2005.02 C 384.342 2005.45 384.19 2005.42 386.23 2006.72 C 388.003 2011.02 387.187 2015.78 386.906 2020.6 L 383.123 2019.51 C 380.891 2015.46 381.807 2009.95 381.969 2005.02 z" fill="rgb(241,240,240)" transform="translate(0,0)"/>
<path d="M 137.008 2002.47 C 139.643 2004.52 140.355 2004.49 141.536 2007.28 L 139.149 2012.37 C 139.285 2015.99 139.117 2015.79 140.981 2018.85 L 142.307 2019.53 C 139.233 2020.16 140.593 2020.43 138.052 2018.96 C 136.044 2014.37 135.474 2007.28 137.008 2002.47 z" fill="rgb(241,240,240)" transform="translate(0,0)"/>
<path d="M 131.883 2005.58 C 134.983 2009.01 133.676 2016.13 132.893 2020.39 L 131.452 2019.15 C 130.011 2014 130.463 2010.67 131.883 2005.58 z" fill="rgb(241,240,240)" transform="translate(0,0)"/>
</svg>